<svg width="531" height="432" viewBox="0 0 531 432" fill="none" xmlns="http://www.w3.org/2000/svg">
<path d="M232.967 165.669L266.608 33.822L268.276 34.2529L235.778 161.611L382.352 60.0761L383.33 61.5077L232.967 165.669Z" fill="white"/>
<path d="M385.069 175.548L384.59 174.967L267.124 32.9255L150.664 61.6084L191.739 101.688L190.54 102.939L147.219 60.6702L267.758 30.9797L268.102 31.3967L385.434 173.275L503.985 99.3148L504.894 100.795L385.069 175.548Z" fill="white"/>
<path d="M149.079 34.3989C134.487 34.3989 122.658 46.3307 122.658 61.0492C122.658 68.2694 125.507 74.8155 130.126 79.614C134.928 84.6 141.646 87.6994 149.079 87.6994C156.393 87.6994 163.01 84.7043 167.795 79.8607C172.559 75.0414 175.501 68.391 175.501 61.0492C175.501 46.3307 163.671 34.3989 149.079 34.3989Z" fill="white"/>
<path d="M134.709 74.6483C136.655 73.1716 141.698 70.3711 144.819 69.3183C145.205 70.7741 147.182 71.6741 148.973 71.6741C150.858 71.6741 152.807 70.7741 153.197 69.3183C156.273 70.3572 161.078 73.2307 163.08 74.7248C163.114 74.7387 163.152 74.7595 163.186 74.7873C164.423 75.7255 165.581 77.0111 166.393 78.453C170.799 73.9951 173.521 67.845 173.521 61.0522C173.521 47.4387 162.58 36.4033 149.084 36.4033C135.587 36.4033 124.646 47.4387 124.646 61.0522C124.646 67.7304 127.278 73.7831 131.553 78.2237C132.363 76.8165 133.5 75.5656 134.709 74.6483Z" fill="#7B86F1"/>
<path d="M152.542 69.3949L148.98 72.5081L145.418 69.3949L146.045 62.3345H151.915L152.542 69.3949Z" fill="#26344E"/>
<path d="M148.949 72.5079C152.39 72.5079 153.486 70.0097 153.196 69.3148C150.919 68.6859 149.297 68.1577 149.297 68.1577C149.297 68.1577 147.423 68.5781 144.822 69.3148C144.174 69.8464 145.604 72.5079 148.949 72.5079Z" fill="#26344E"/>
<path d="M149.081 85.6975C155.843 85.6975 161.964 82.9247 166.391 78.4494C165.578 77.0075 164.42 75.7219 163.184 74.7837C163.149 74.7559 163.111 74.7386 163.077 74.7212C161.079 73.2271 156.273 70.3536 153.194 69.3147C152.808 70.7706 150.858 71.6705 148.97 71.6705C147.179 71.6705 145.205 70.7706 144.816 69.3147C141.695 70.3675 136.655 73.168 134.706 74.6447C133.493 75.562 132.36 76.8164 131.547 78.2201C135.994 82.8309 142.205 85.6975 149.081 85.6975Z" fill="white"/>
<path d="M142.391 57.1505C142.391 57.1505 141.609 52.776 142.998 50.0727C144.744 46.6711 149.977 44.9025 153.979 48.4153C156.549 50.6704 155.306 57.5848 155.306 57.5848L146.546 53.8288L142.391 57.1505Z" fill="#151C28"/>
<path d="M143.49 55.7711C143.49 55.7711 142.749 55.2882 142.177 56.0595C141.605 56.8309 141.984 59.7183 143.417 59.7183C144.85 59.7183 143.49 55.7711 143.49 55.7711Z" fill="#26344E"/>
<path d="M154.564 55.7711C154.564 55.7711 155.305 55.2882 155.877 56.0595C156.452 56.8309 156.07 59.7183 154.637 59.7183C153.204 59.7183 154.564 55.7711 154.564 55.7711Z" fill="#26344E"/>
<path d="M154.802 54.9683C154.802 51.7265 152.208 49.6035 149.004 49.6035C145.8 49.6035 143.207 51.7265 143.207 54.9683C143.207 54.9683 142.955 59.1031 142.955 59.3046C142.955 62.3831 146.693 66.2921 149.004 66.2921C151.674 66.2921 155.057 61.6396 155.057 59.3046C155.057 59.1031 154.802 54.9683 154.802 54.9683Z" fill="#2D3B5D"/>
<path d="M150.187 54.9443C150.187 54.9443 152.581 54.8053 153.039 54.8713C153.804 54.979 153.945 55.4863 154.052 55.7643C154.09 55.8581 150.921 56.0353 150.47 55.8511C150.018 55.6635 150.187 54.9443 150.187 54.9443Z" fill="#151C28"/>
<path d="M147.768 54.9335C147.768 54.9335 145.37 54.8084 144.912 54.8745C144.151 54.9856 144.009 55.4964 143.903 55.7744C143.865 55.8682 147.037 56.028 147.485 55.8404C147.936 55.6528 147.768 54.9335 147.768 54.9335Z" fill="#151C28"/>
<path d="M147.979 60.7988H150.159L149.067 61.2193L147.979 60.7988Z" fill="#1D273C"/>
<path d="M382.634 34.3989C368.042 34.3989 356.213 46.3307 356.213 61.0492C356.213 68.2694 359.062 74.8155 363.681 79.614C368.483 84.6 375.2 87.6994 382.634 87.6994C389.947 87.6994 396.565 84.7043 401.35 79.8607C406.114 75.0414 409.055 68.391 409.055 61.0492C409.055 46.3307 397.226 34.3989 382.634 34.3989Z" fill="white"/>
<path d="M368.263 74.6483C370.21 73.1716 375.253 70.3711 378.374 69.3183C378.759 70.7741 380.737 71.6741 382.528 71.6741C384.412 71.6741 386.362 70.7741 386.751 69.3183C389.827 70.3572 394.633 73.2307 396.634 74.7248C396.669 74.7387 396.703 74.7595 396.741 74.7873C397.978 75.7255 399.135 77.0111 399.948 78.453C404.354 73.9951 407.075 67.845 407.075 61.0522C407.075 47.4387 396.135 36.4033 382.638 36.4033C369.142 36.4033 358.201 47.4387 358.201 61.0522C358.201 67.7304 360.833 73.7831 365.108 78.2237C365.917 76.8165 367.054 75.5656 368.263 74.6483Z" fill="#7B86F1"/>
<path d="M387.681 84.631C399.045 77.8902 389.145 50.5868 389.145 50.5868C389.145 50.5868 377.529 47.5604 376.241 50.6458C372.817 58.8355 367.123 69.9473 365.211 78.0466C368.88 80.0271 384.46 86.542 387.681 84.631Z" fill="white"/>
<path d="M393.395 77.2475C393.943 74.2524 393.908 70.5762 393.288 66.3199C392.286 59.4471 390.057 53.092 389.396 51.3061C389.375 51.254 389.365 51.2227 389.361 51.2157C389.044 50.2568 388.638 49.1796 387.814 48.4951L387.925 48.3596C388.782 49.0719 389.199 50.1803 389.523 51.1602C389.527 51.1671 389.537 51.1984 389.554 51.247C390.215 53.0364 392.451 59.4089 393.454 66.2955C394.077 70.5693 394.111 74.2663 393.56 77.2788C392.878 81.0209 392.716 80.941 393.395 77.2475Z" fill="white"/>
<path d="M364.449 77.5116C364.449 77.5116 364.453 77.4977 364.456 77.4908C364.652 76.8341 364.88 76.1461 365.135 75.4199C366.709 70.9446 369.158 65.8404 371.528 60.8995C373.164 57.4909 374.708 54.27 375.934 51.3374L376.093 51.4034C374.866 54.3395 373.319 57.5604 371.683 60.9725C369.317 65.9064 366.871 71.0072 365.297 75.4755C365.031 76.226 364.797 76.9418 364.597 77.6263C364.594 77.6402 364.587 77.6645 364.587 77.6645L364.449 77.5116Z" fill="white"/>
<path d="M376.092 56.5043C376.092 56.5043 375.311 52.1297 376.699 49.4265C378.445 46.0248 383.661 44.1486 387.681 47.7691C390.478 50.2882 389.007 56.9386 389.007 56.9386L380.247 53.1825L376.092 56.5043Z" fill="white"/>
<path d="M386.159 69.3949L382.597 72.5081L379.035 69.3949L379.662 62.3345H385.532L386.159 69.3949Z" fill="#D87D77"/>
<path d="M382.562 72.5079C386.003 72.5079 387.099 70.0097 386.809 69.3148C384.532 68.6859 382.91 68.1577 382.91 68.1577C382.91 68.1577 381.036 68.5781 378.435 69.3148C377.787 69.8464 379.22 72.5079 382.562 72.5079Z" fill="#D87D77"/>
<path d="M377.191 55.736C377.191 55.736 376.45 55.253 375.878 56.0244C375.306 56.7957 375.685 59.6831 377.118 59.6831C378.551 59.6831 377.191 55.736 377.191 55.736Z" fill="#D87D77"/>
<path d="M388.262 55.736C388.262 55.736 389.002 55.253 389.574 56.0244C390.146 56.7957 389.767 59.6831 388.334 59.6831C386.901 59.6831 388.262 55.736 388.262 55.736Z" fill="#D87D77"/>
<path d="M388.503 54.9336C388.503 51.6918 385.909 49.5688 382.705 49.5688C379.502 49.5688 376.908 51.6918 376.908 54.9336C376.908 54.9336 376.656 59.0684 376.656 59.2699C376.656 62.3484 380.394 66.2574 382.709 66.2574C385.378 66.2574 388.758 61.6049 388.758 59.2699C388.754 59.0684 388.503 54.9336 388.503 54.9336Z" fill="#E4837A"/>
<path d="M381.672 60.427H383.852L382.764 60.8509L381.672 60.427Z" fill="#C76A69"/>
<path d="M383.897 55.2012C383.897 55.2012 386.284 54.9615 386.746 55.0066C387.514 55.0831 387.68 55.5834 387.797 55.8544C387.838 55.9483 384.679 56.261 384.221 56.0907C383.763 55.9274 383.897 55.2012 383.897 55.2012Z" fill="#283558"/>
<path d="M381.517 55.2012C381.517 55.2012 379.13 54.9615 378.668 55.0066C377.9 55.0831 377.735 55.5834 377.618 55.8544C377.576 55.9483 380.735 56.261 381.193 56.0907C381.655 55.9274 381.517 55.2012 381.517 55.2012Z" fill="#283558"/>
<path d="M382.635 85.6975C389.397 85.6975 395.519 82.9247 399.945 78.4494C399.132 77.0075 397.975 75.7219 396.738 74.7837C396.704 74.7559 396.666 74.7386 396.631 74.7212C394.633 73.2271 389.828 70.3536 386.748 69.3147C386.363 70.7706 384.413 71.6705 382.525 71.6705C380.734 71.6705 378.76 70.7706 378.371 69.3147C375.25 70.3675 370.21 73.168 368.26 74.6447C367.048 75.562 365.915 76.8164 365.102 78.2201C369.549 82.8309 375.76 85.6975 382.635 85.6975Z" fill="#283558"/>
<path d="M504.578 68.1025C489.986 68.1025 478.156 80.0343 478.156 94.7528C478.156 101.973 481.005 108.519 485.624 113.318C490.426 118.304 497.144 121.403 504.578 121.403C511.891 121.403 518.508 118.408 523.293 113.564C528.057 108.745 530.999 102.095 530.999 94.7528C530.999 80.0343 519.17 68.1025 504.578 68.1025Z" fill="white"/>
<path d="M490.207 108.352C492.153 106.875 497.196 104.075 500.317 103.022C500.703 104.478 502.68 105.378 504.471 105.378C506.356 105.378 508.305 104.478 508.695 103.022C511.771 104.061 516.576 106.934 518.578 108.428C518.612 108.442 518.647 108.463 518.684 108.491C519.921 109.429 521.079 110.715 521.892 112.157C526.297 107.699 529.019 101.549 529.019 94.7558C529.019 81.1423 518.078 70.1069 504.582 70.1069C491.085 70.1069 480.145 81.1423 480.145 94.7558C480.145 101.434 482.776 107.487 487.051 111.927C487.861 110.52 488.998 109.269 490.207 108.352Z" fill="#E0C700"/>
<path d="M508.04 103.098L504.478 106.212L500.916 103.098L501.543 96.0381H507.413L508.04 103.098Z" fill="#D87D77"/>
<path d="M504.447 106.212C507.888 106.212 508.984 103.714 508.694 103.019C506.417 102.39 504.795 101.862 504.795 101.862C504.795 101.862 502.921 102.282 500.32 103.019C499.672 103.55 501.102 106.212 504.447 106.212Z" fill="#D87D77"/>
<path d="M497.823 90.3433C497.823 90.3433 497.041 85.9687 498.429 83.2655C500.176 79.8638 507.062 76.6359 509.067 77.866C511.071 79.0925 507.699 81.007 508.633 81.3996C509.563 81.7888 510.396 79.5998 510.992 80.0897C513.407 82.0702 510.741 90.7811 510.741 90.7811L501.981 87.025L497.823 90.3433Z" fill="#283558"/>
<path d="M499.476 82.5709L499.297 82.4701C500.537 80.2325 502.518 78.933 503.965 78.2346C505.528 77.4806 506.82 77.2478 506.831 77.2478L506.865 77.4528C506.851 77.4563 505.584 77.6821 504.047 78.4257C502.628 79.1102 500.685 80.3819 499.476 82.5709Z" fill="#283558"/>
<path d="M498.921 89.5719C498.921 89.5719 498.181 89.0889 497.609 89.8603C497.037 90.6317 497.416 93.5191 498.849 93.5191C500.282 93.5191 498.921 89.5719 498.921 89.5719Z" fill="#D87D77"/>
<path d="M509.993 89.5719C509.993 89.5719 510.733 89.0889 511.305 89.8603C511.877 90.6317 511.494 93.5191 510.065 93.5191C508.635 93.5191 509.993 89.5719 509.993 89.5719Z" fill="#D87D77"/>
<path d="M510.233 88.7695C510.233 85.5277 507.639 83.4082 504.436 83.4082C501.232 83.4082 498.638 85.5312 498.638 88.7695C498.638 88.7695 498.387 92.9043 498.387 93.1058C498.387 96.1843 502.124 100.093 504.439 100.093C507.109 100.093 510.492 95.4408 510.492 93.1058C510.488 92.9043 510.233 88.7695 510.233 88.7695Z" fill="#E4837A"/>
<path d="M505.666 88.6619C505.666 88.6619 508.053 88.4222 508.515 88.4673C509.283 88.5438 509.448 89.0441 509.565 89.3151C509.607 89.409 506.448 89.7217 505.99 89.5514C505.528 89.3881 505.666 88.6619 505.666 88.6619Z" fill="#283558"/>
<path d="M503.283 88.6619C503.283 88.6619 500.895 88.4222 500.434 88.4673C499.666 88.5438 499.5 89.0441 499.383 89.3151C499.342 89.409 502.501 89.7217 502.959 89.5514C503.42 89.3881 503.283 88.6619 503.283 88.6619Z" fill="#283558"/>
<path d="M503.475 93.957H505.655L504.563 94.3809L503.475 93.957Z" fill="#CA706F"/>
<path d="M504.579 119.402C511.341 119.402 517.462 116.629 521.889 112.154C521.076 110.712 519.918 109.426 518.682 108.488C518.647 108.46 518.609 108.443 518.575 108.425C516.577 106.931 511.771 104.058 508.692 103.019C508.306 104.475 506.356 105.375 504.468 105.375C502.677 105.375 500.703 104.475 500.314 103.019C497.193 104.072 492.154 106.872 490.204 108.349C488.991 109.266 487.858 110.52 487.045 111.924C491.492 116.535 497.703 119.402 504.579 119.402Z" fill="white"/>
<path d="M385.044 142.111C370.452 142.111 358.623 154.043 358.623 168.762C358.623 175.982 361.472 182.528 366.091 187.326C370.893 192.312 377.611 195.412 385.044 195.412C392.358 195.412 398.975 192.417 403.76 187.573C408.524 182.754 411.466 176.103 411.466 168.762C411.466 154.043 399.636 142.111 385.044 142.111Z" fill="white"/>
<path d="M370.673 182.361C372.62 180.885 377.663 178.084 380.784 177.031C381.17 178.487 383.147 179.387 384.938 179.387C386.822 179.387 388.772 178.487 389.161 177.031C392.238 178.07 397.043 180.944 399.044 182.438C399.079 182.452 399.113 182.472 399.151 182.5C400.388 183.438 401.545 184.724 402.358 186.166C406.764 181.708 409.486 175.558 409.486 168.765C409.486 155.152 398.545 144.116 385.048 144.116C371.552 144.116 360.611 155.152 360.611 168.765C360.611 175.443 363.243 181.496 367.518 185.937C368.328 184.529 369.464 183.279 370.673 182.361Z" fill="#354C8E"/>
<path d="M385.201 173.876C393.117 173.876 399.534 167.403 399.534 159.419C399.534 151.434 393.117 144.961 385.201 144.961C377.285 144.961 370.867 151.434 370.867 159.419C370.867 167.403 377.285 173.876 385.201 173.876Z" fill="#151C28"/>
<path d="M388.507 177.108L384.945 180.221L381.383 177.108L382.01 170.047H387.88L388.507 177.108Z" fill="#26344E"/>
<path d="M384.914 180.221C388.355 180.221 389.45 177.722 389.161 177.027C386.884 176.399 385.262 175.87 385.262 175.87C385.262 175.87 383.388 176.291 380.787 177.027C380.139 177.559 381.569 180.221 384.914 180.221Z" fill="#26344E"/>
<path d="M385.046 193.411C391.808 193.411 397.929 190.638 402.355 186.163C401.542 184.721 400.385 183.435 399.148 182.497C399.114 182.469 399.076 182.452 399.042 182.434C397.044 180.94 392.238 178.067 389.159 177.028C388.773 178.484 386.823 179.384 384.935 179.384C383.144 179.384 381.17 178.484 380.781 177.028C377.66 178.081 372.62 180.881 370.671 182.358C369.458 183.275 368.325 184.529 367.512 185.933C371.959 190.544 378.17 193.411 385.046 193.411Z" fill="white"/>
<path d="M378.894 165.044C378.894 165.044 378.157 160.912 379.466 158.359C381.116 155.148 386.042 153.376 389.835 156.795C392.474 159.175 391.089 165.45 391.089 165.45L382.818 161.903L378.894 165.044Z" fill="#151C28"/>
<path d="M379.932 164.318C379.932 164.318 379.233 163.862 378.692 164.589C378.151 165.315 378.513 168.042 379.863 168.042C381.217 168.042 379.932 164.318 379.932 164.318Z" fill="#26344E"/>
<path d="M390.384 164.318C390.384 164.318 391.083 163.862 391.624 164.589C392.165 165.315 391.803 168.042 390.453 168.042C389.102 168.042 390.384 164.318 390.384 164.318Z" fill="#26344E"/>
<path d="M390.611 162.584C390.611 159.523 388.162 157.522 385.137 157.522C382.113 157.522 379.663 159.527 379.663 162.584C379.663 162.584 379.426 167.463 379.426 167.654C379.426 170.562 382.953 174.248 385.137 174.248C387.659 174.248 390.849 169.857 390.849 167.654C390.852 167.463 390.611 162.584 390.611 162.584Z" fill="#2D3B5D"/>
<path d="M386.307 162.914C386.307 162.914 388.695 162.674 389.156 162.719C389.924 162.796 390.09 163.296 390.207 163.567C390.248 163.661 387.089 163.974 386.631 163.803C386.173 163.64 386.307 162.914 386.307 162.914Z" fill="#151C28"/>
<path d="M383.927 162.914C383.927 162.914 381.54 162.674 381.078 162.719C380.31 162.796 380.145 163.296 380.028 163.567C379.986 163.661 383.145 163.974 383.603 163.803C384.065 163.64 383.927 162.914 383.927 162.914Z" fill="#151C28"/>
<path d="M384.117 168.313H386.298L385.209 168.737L384.117 168.313Z" fill="#1D273C"/>
<path d="M267.579 0C252.988 0 241.158 11.9318 241.158 26.6502C241.158 33.8705 244.007 40.4166 248.626 45.2151C253.428 50.2011 260.146 53.3005 267.579 53.3005C274.893 53.3005 281.51 50.3054 286.295 45.4618C291.059 40.6425 294.001 33.9921 294.001 26.6502C294.001 11.9318 282.171 0 267.579 0Z" fill="white"/>
<path d="M253.209 40.2501C255.155 38.7734 260.198 35.9729 263.319 34.9201C263.705 36.3759 265.682 37.2759 267.473 37.2759C269.358 37.2759 271.307 36.3759 271.697 34.9201C274.773 35.959 279.578 38.8325 281.58 40.3266C281.614 40.3439 281.649 40.3613 281.686 40.3891C282.923 41.3272 284.081 42.6128 284.893 44.0548C289.299 39.5969 292.021 33.4468 292.021 26.654C292.021 13.0405 281.08 2.00513 267.584 2.00513C254.087 2.00513 243.146 13.0405 243.146 26.654C243.146 33.3322 245.778 39.3849 250.053 43.8255C250.863 42.4183 252 41.1674 253.209 40.2501Z" fill="#E0C700"/>
<path d="M271.042 34.9964L267.48 38.1097L263.918 34.9964L264.545 27.936H270.415L271.042 34.9964Z" fill="#E4837A"/>
<path d="M267.449 38.1095C270.89 38.1095 271.986 35.6112 271.696 34.9163C269.419 34.2874 267.797 33.7593 267.797 33.7593C267.797 33.7593 265.923 34.1797 263.322 34.9163C262.674 35.4479 264.104 38.1095 267.449 38.1095Z" fill="#E4837A"/>
<path d="M267.581 51.299C274.343 51.299 280.464 48.5263 284.891 44.051C284.078 42.609 282.92 41.3234 281.683 40.3853C281.649 40.3575 281.611 40.3401 281.577 40.3227C279.579 38.8287 274.773 35.9552 271.694 34.9163C271.308 36.3721 269.358 37.272 267.47 37.272C265.679 37.272 263.705 36.3721 263.316 34.9163C260.195 35.9691 255.155 38.7696 253.206 40.2463C251.993 41.1636 250.86 42.4179 250.047 43.8217C254.494 48.4325 260.705 51.299 267.581 51.299Z" fill="#7B86F1"/>
<path d="M261.542 45.076C261.542 45.076 254.046 40.7049 257.047 34.1761C260.047 27.6473 279.724 30.295 280.268 36.035C280.816 41.8203 270.168 45.8473 270.168 45.8473L261.542 45.076Z" fill="#7B86F1"/>
<path d="M271.07 34.9964C271.07 34.9964 268.279 39.5863 267.597 40.0311C266.719 39.0095 263.949 34.9964 263.949 34.9964L264.576 27.9395H270.446L271.07 34.9964Z" fill="#D97C75"/>
<path d="M267.476 45.0618C263.791 45.0618 256.977 39.4816 256.688 39.2418L256.715 39.009L256.86 39.0264C256.932 39.0855 264.039 44.9124 267.594 44.7804C269.368 44.7178 275.217 41.9555 278.768 39.5024L278.923 39.7283C275.61 42.0146 269.616 44.9819 267.604 45.0548C267.559 45.0583 267.518 45.0618 267.476 45.0618Z" fill="#6775D6"/>
<path d="M272.04 8.54063C272.133 11.3342 270.458 13.1341 267.94 13.2209C265.422 13.3043 264.213 11.5184 264.12 8.72478C264.027 5.9312 265.288 3.79084 267.806 3.70745C270.324 3.62406 271.947 5.75052 272.04 8.54063Z" fill="#283558"/>
<path d="M268.44 12.9917C266.245 12.9917 264.988 11.449 264.895 8.64499C264.85 7.27947 265.14 6.10852 265.729 5.25029C266.359 4.33995 267.306 3.83613 268.471 3.79791C268.519 3.79791 268.564 3.79443 268.612 3.79443C269.749 3.79443 270.731 4.26003 271.451 5.14258C272.133 5.97996 272.532 7.15786 272.574 8.46084C272.618 9.77076 272.257 10.8931 271.537 11.7026C270.824 12.5018 269.811 12.9466 268.605 12.9848C268.547 12.9917 268.491 12.9917 268.44 12.9917ZM268.612 3.9647C268.567 3.9647 268.522 3.96469 268.478 3.96816C267.368 4.00638 266.463 4.48241 265.867 5.35106C265.295 6.17802 265.019 7.31422 265.06 8.64499C265.102 9.95839 265.402 10.9869 265.953 11.7026C266.556 12.4879 267.448 12.8666 268.602 12.8284C269.763 12.7902 270.734 12.3628 271.416 11.5984C272.108 10.8201 272.453 9.73949 272.412 8.47473C272.37 7.2065 271.984 6.06683 271.327 5.25725C270.634 4.40945 269.697 3.9647 268.612 3.9647Z" fill="#283558"/>
<path d="M260.891 22.2305C260.891 22.2305 260.109 17.856 261.498 15.1527C263.244 11.7511 268.28 10.2257 272.479 13.4953C275.449 15.806 273.806 22.6648 273.806 22.6648L265.046 18.9088L260.891 22.2305Z" fill="#283558"/>
<path d="M261.99 21.4625C261.99 21.4625 261.249 20.9796 260.677 21.7509C260.105 22.5223 260.484 25.4097 261.917 25.4097C263.35 25.4097 261.99 21.4625 261.99 21.4625Z" fill="#D97C75"/>
<path d="M273.061 21.4625C273.061 21.4625 273.801 20.9796 274.373 21.7509C274.945 22.5223 274.566 25.4097 273.133 25.4097C271.704 25.4097 273.061 21.4625 273.061 21.4625Z" fill="#D97C75"/>
<path d="M273.302 20.6597C273.302 17.4178 270.708 15.2983 267.504 15.2983C264.3 15.2983 261.707 17.4213 261.707 20.6597C261.707 20.6597 261.455 24.7944 261.455 24.996C261.455 28.0745 265.193 31.9834 267.507 31.9834C270.177 31.9834 273.557 27.3309 273.557 24.996C273.553 24.7944 273.302 20.6597 273.302 20.6597Z" fill="#E4837A"/>
<path d="M268.701 20.8023C268.701 20.8023 271.088 20.5625 271.55 20.6077C272.318 20.6842 272.483 21.1845 272.6 21.4555C272.642 21.5493 269.483 21.862 269.025 21.6918C268.563 21.5285 268.701 20.8023 268.701 20.8023Z" fill="#283558"/>
<path d="M266.316 20.8023C266.316 20.8023 263.929 20.5625 263.467 20.6077C262.699 20.6842 262.534 21.1845 262.416 21.4555C262.375 21.5493 265.534 21.862 265.992 21.6918C266.454 21.5285 266.316 20.8023 266.316 20.8023Z" fill="#283558"/>
<path d="M266.506 26.4351H268.69L267.598 26.8555L266.506 26.4351Z" fill="#C76A69"/>
<path d="M234.509 130.84C219.917 130.84 208.088 142.772 208.088 157.49C208.088 164.71 210.937 171.256 215.556 176.055C220.358 181.041 227.075 184.14 234.509 184.14C241.822 184.14 248.44 181.145 253.225 176.302C257.989 171.482 260.93 164.832 260.93 157.49C260.93 142.772 249.101 130.84 234.509 130.84Z" fill="white"/>
<path d="M220.138 171.086C222.085 169.61 227.128 166.809 230.249 165.756C230.634 167.212 232.612 168.112 234.403 168.112C236.287 168.112 238.237 167.212 238.626 165.756C241.702 166.795 246.508 169.669 248.509 171.163C248.544 171.177 248.578 171.198 248.616 171.225C249.853 172.163 251.01 173.449 251.823 174.891C256.229 170.433 258.95 164.283 258.95 157.49C258.95 143.877 248.01 132.841 234.513 132.841C221.017 132.841 210.076 143.877 210.076 157.49C210.076 164.168 212.708 170.221 216.983 174.662C217.792 173.258 218.929 172.007 220.138 171.086Z" fill="#354C8E"/>
<path d="M237.971 165.833L234.41 168.95L230.848 165.833L231.475 158.776H237.344L237.971 165.833Z" fill="#E4837A"/>
<path d="M234.378 168.949C237.82 168.949 238.915 166.451 238.626 165.756C236.349 165.127 234.726 164.599 234.726 164.599C234.726 164.599 232.852 165.02 230.252 165.756C229.604 166.288 231.034 168.949 234.378 168.949Z" fill="#E4837A"/>
<path d="M234.51 182.139C241.272 182.139 247.394 179.367 251.82 174.891C251.007 173.449 249.85 172.164 248.613 171.226C248.579 171.198 248.541 171.18 248.506 171.163C246.508 169.669 241.703 166.795 238.623 165.757C238.238 167.212 236.288 168.112 234.4 168.112C232.609 168.112 230.635 167.212 230.246 165.757C227.125 166.809 222.085 169.61 220.135 171.087C218.923 172.004 217.79 173.258 216.977 174.662C221.424 179.273 227.635 182.139 234.51 182.139Z" fill="#7B86F1"/>
<path d="M246.26 147.706C246.26 154.263 240.99 159.579 234.489 159.579C227.989 159.579 222.719 154.263 222.719 147.706C222.719 141.149 227.989 135.833 234.489 135.833C240.99 135.833 246.26 141.149 246.26 147.706Z" fill="white"/>
<path d="M240.121 151.247C240.121 148.047 237.558 145.09 234.4 145.09C231.241 145.09 228.678 148.047 228.678 151.247C228.678 151.247 228.547 155.364 228.547 155.562C228.547 158.602 232.116 162.421 234.4 162.421C237.035 162.421 240.273 157.796 240.273 155.493C240.273 155.295 240.121 151.247 240.121 151.247Z" fill="#E4837A"/>
<path d="M228.581 154.394C228.581 154.394 229.997 158.529 230.941 158.814C231.885 159.099 232.398 157.622 234.403 157.647C236.408 157.674 236.601 158.859 237.73 158.776C238.86 158.692 240.245 154.606 240.245 154.606C240.245 154.606 240.39 156.781 240.032 157.959C239.756 158.863 239.232 160.482 238.55 161.128C237.686 161.945 235.598 163.439 234.413 163.47C233.249 163.501 231.072 161.972 230.231 161.156C229.566 160.51 229.036 158.804 228.771 157.911C228.385 156.618 228.581 154.394 228.581 154.394Z" fill="#283558"/>
<path d="M235.597 150.944C235.597 150.944 237.985 150.705 238.446 150.75C239.214 150.826 239.38 151.327 239.497 151.598C239.538 151.691 236.379 152.004 235.921 151.834C235.46 151.671 235.597 150.944 235.597 150.944Z" fill="#283558"/>
<path d="M233.214 150.944C233.214 150.944 230.827 150.705 230.366 150.75C229.597 150.826 229.432 151.327 229.315 151.598C229.274 151.691 232.432 152.004 232.891 151.834C233.352 151.671 233.214 150.944 233.214 150.944Z" fill="#283558"/>
<path d="M234.418 143.088C233.774 143.088 233.147 143.109 232.537 143.15L230.102 146.496C230.708 146.455 233.774 146.375 234.418 146.375C235.062 146.375 237.725 146.455 238.335 146.496L236.299 143.15C235.692 143.112 235.062 143.088 234.418 143.088Z" fill="#283558"/>
<path d="M234.49 144.613C238.49 147.463 241.149 152.094 241.332 157.365C244.315 155.211 246.258 151.688 246.258 147.706C246.258 145.496 245.658 143.429 244.614 141.657C244.346 141.643 244.077 141.636 243.805 141.636C240.339 141.636 237.125 142.737 234.49 144.613Z" fill="white"/>
<path d="M234.489 135.833C230.18 135.833 226.411 138.168 224.362 141.653C223.318 143.425 222.719 145.493 222.719 147.703C222.719 151.684 224.662 155.208 227.645 157.362C227.827 152.094 230.49 147.459 234.486 144.61C237.121 142.734 240.335 141.632 243.804 141.632C244.076 141.632 244.345 141.639 244.614 141.653C242.567 138.168 238.799 135.833 234.489 135.833Z" fill="white"/>
<path d="M234.669 144.742L234.49 144.613C237.243 142.65 240.488 141.615 243.87 141.615C244.115 141.615 244.359 141.622 244.607 141.632C244.642 141.681 244.731 141.848 244.731 141.848L244.673 141.844C244.404 141.83 244.136 141.823 243.87 141.823C240.532 141.823 237.387 142.807 234.669 144.742Z" fill="#E8E2E2"/>
<path d="M84.1875 414.305L92.1897 421.661L97.6324 411.383V398.545L84.1875 398.016V414.305Z" fill="#E4837A"/>
<path d="M54.2969 204.227C54.2969 204.227 74.2179 307.499 75.0584 315.532C75.8989 323.566 73.3808 362.874 82.5714 399.35C82.5714 399.35 93.7186 401.147 100.119 399.934C100.605 384.833 101.914 330.654 102.069 320.842C102.286 306.922 101.352 227.993 101.352 227.993C101.352 227.993 62.1991 184.908 54.2969 204.227Z" fill="#283757"/>
<path d="M82.9951 412.638C82.0236 412.909 79.3884 430.264 80.9592 431.171C82.53 432.075 126.471 432.78 129.02 430.257C130.36 428.933 128.934 423.082 128.011 422.825C111.046 418.044 98.7307 409.034 98.7307 409.034C98.7307 409.034 94.3869 410.601 94.8932 412.943L95.4134 413.93C95.4134 413.93 92.6748 416.508 90.0293 416.258C87.3733 416.004 85.4615 411.96 82.9951 412.638Z" fill="white"/>
<path d="M108.776 415.083C108.266 415.268 107.784 415.5 107.339 415.782C105.028 417.231 104.077 419.621 103.777 420.584L104.435 420.792C104.711 419.906 105.586 417.7 107.704 416.373C108.29 416.008 108.944 415.726 109.64 415.542L108.776 415.083Z" fill="#E8E2E2"/>
<path d="M104.714 412.843C104.572 412.919 104.434 412.999 104.3 413.082C101.989 414.531 101.038 416.922 100.738 417.884L101.396 418.093C101.675 417.207 102.547 415 104.665 413.673C104.91 413.52 105.168 413.381 105.437 413.26C105.571 413.336 104.714 412.843 104.714 412.843Z" fill="#E8E2E2"/>
<path d="M47.5012 417.745L34.8555 414.264L35.1517 397.926L48.538 397.93L47.5012 417.745Z" fill="#E4837A"/>
<path d="M25.3027 227.17C25.3027 227.17 29.7878 275.533 31.4447 320.175C28.5442 357.492 31.7169 393.871 31.7272 399.007C35.1961 402.179 50.4563 399.042 50.4563 399.042C50.6148 389.268 52.6989 353.907 56.8084 322.076C62.8402 275.325 71.6002 223.887 71.6002 223.887C71.6002 223.887 32.9914 207.768 25.3027 227.17Z" fill="#283757"/>
<path d="M50.3425 417.019C50.1841 415.865 49.0542 414.423 48.3756 413.756C47.6453 413.044 47.3387 412.582 46.5258 410.337C45.7851 408.304 42.9811 407.693 41.2346 407.62V407.613C41.2139 407.613 41.1933 407.613 41.1726 407.617C41.1554 407.617 41.1313 407.617 41.1106 407.613V407.62C39.3641 407.693 36.5601 408.304 35.8195 410.337C35.003 412.582 34.6965 413.044 33.9696 413.756C33.291 414.423 32.1577 415.865 32.0027 417.019C31.8442 418.172 28.8266 431.449 31.8408 431.661C33.291 431.765 37.2525 431.553 41.1003 431.619C41.1244 431.619 41.1485 431.619 41.1726 431.619C41.1967 431.619 41.2243 431.619 41.2484 431.619C45.0996 431.553 49.0576 431.765 50.5079 431.661C53.522 431.449 50.501 418.176 50.3425 417.019Z" fill="white"/>
<path d="M51.8516 96.0696C51.8516 98.1127 70.8184 108.21 70.4222 103.971L67.6423 79.6243L54.6177 72.4353C54.6142 72.4353 52.3614 90.4372 51.8516 96.0696Z" fill="#E4837A"/>
<path d="M62.4856 76.7783L67.6871 79.1723L68.8067 89.7525C61.1387 87.6747 62.4856 80.5378 62.4856 76.7783Z" fill="#CA706F"/>
<path d="M77.8475 52.2863C81.1028 50.5073 83.2282 40.1217 81.7332 37.9188C80.8169 36.5672 76.5729 40.4518 75.4327 40.3371C75.5395 39.7186 79.184 36.3899 79.6629 34.9723C75.5843 29.4268 49.7004 33.0856 45.6149 44.663C43.9373 49.4128 70.5687 56.2612 77.8475 52.2863Z" fill="#293657"/>
<path d="M40.7227 57.8976C40.7227 68.714 49.2277 78.6062 60.0408 78.6062C70.8539 78.6062 79.6208 68.714 79.6208 57.8976C79.6208 47.0811 70.8539 38.3147 60.0408 38.3147C54.3294 38.3147 49.4516 40.7608 45.8725 44.6628C41.4805 44.9894 40.7227 52.7969 40.7227 57.8976Z" fill="#283558"/>
<path d="M81.9499 75.3089C81.3781 75.2324 81.0061 74.461 80.8476 73.0121C80.7064 71.7196 80.758 70.0344 80.9923 68.2693C81.4229 65.0171 82.477 61.7231 83.6585 61.7231C83.6895 61.7231 83.7171 61.7232 83.7481 61.7301C84.9675 61.8934 85.1501 65.3958 84.7057 68.7697C84.2751 72.0219 83.221 75.3158 82.0395 75.3158C82.0085 75.3158 81.9775 75.3123 81.9499 75.3089ZM81.509 68.3423C81.2816 70.0657 81.23 71.7057 81.3678 72.9566C81.5193 74.3533 81.8466 74.7634 82.0188 74.7877C82.0257 74.7877 82.0326 74.7877 82.036 74.7877C82.5975 74.7877 83.6861 72.4736 84.1821 68.7002C84.4095 66.9768 84.4611 65.3367 84.3233 64.0859C84.1718 62.6891 83.8445 62.2791 83.6723 62.2548C83.6654 62.2548 83.6585 62.2548 83.6551 62.2548C83.097 62.2548 82.0085 64.5688 81.509 68.3423Z" fill="white"/>
<path d="M81.4632 61.3718C81.4632 61.3718 75.4418 60.7672 74.2809 60.8784C72.3449 61.066 71.9315 62.3308 71.6319 63.0187C71.5285 63.255 79.4928 64.0403 80.6502 63.6199C81.8077 63.2029 81.4632 61.3718 81.4632 61.3718Z" fill="#283558"/>
<path d="M58.4359 66.2364C61.5224 56.4449 65.2462 47.1816 72.1082 47.1816C80.1861 47.1816 81.5123 58.8112 80.7717 63.4254C80.7717 63.4254 80.5754 71.4448 80.5754 71.9521C80.5754 73.3281 80.5203 74.975 80.3721 76.7019C80.3721 76.7019 79.0666 88.2758 76.2867 88.4739C72.4802 88.7449 63.4653 86.5142 58.7253 82.7964C55.1083 79.9576 54.4297 77.5983 54.4297 75.0515C54.4297 74.6832 56.5 71.9695 57.4576 69.1759C57.8159 68.1439 58.1604 67.1189 58.4359 66.2364Z" fill="#E4837A"/>
<path d="M79.4515 61.2226C79.4515 61.2226 73.43 60.618 72.2692 60.7292C70.3332 60.9169 69.9198 62.1816 69.6201 62.8696C69.5168 63.1058 77.4811 63.8911 78.6385 63.4707C79.7959 63.0503 79.4515 61.2226 79.4515 61.2226Z" fill="#283558"/>
<path d="M80.7723 63.429L83.6177 75.2635L79.4082 77.1328L80.7723 63.429Z" fill="#E4837A"/>
<path d="M76.946 75.347C76.3742 75.2705 76.0022 74.4957 75.8437 73.0502C75.7025 71.7577 75.7541 70.0725 75.9884 68.3074C76.419 65.0552 77.4731 61.7612 78.6512 61.7612C78.6822 61.7612 78.7097 61.7647 78.7407 61.7682C79.9602 61.9315 80.1427 65.4339 79.6984 68.8077C79.2678 72.06 78.2137 75.3539 77.0321 75.3539C77.0046 75.3539 76.9736 75.3504 76.946 75.347ZM76.5085 68.3804C76.2812 70.1038 76.2295 71.7438 76.3673 72.9946C76.5189 74.3914 76.8461 74.8014 77.0184 74.8258C77.0253 74.8258 77.0321 74.8258 77.039 74.8258C77.6005 74.8258 78.6891 72.5117 79.1851 68.7382C79.4125 67.0148 79.4641 65.3748 79.3263 64.124C79.1748 62.7272 78.8441 62.3137 78.6753 62.2929C78.6684 62.2929 78.6615 62.2929 78.6546 62.2929C78.0931 62.2929 77.0046 64.607 76.5085 68.3804Z" fill="white"/>
<path d="M79.8364 67.1334C80.0913 66.7338 80.4771 66.5045 80.8939 66.5045C81.1351 66.5045 81.3727 66.5844 81.5794 66.7338L81.886 66.3064C81.5898 66.091 81.2487 65.9763 80.8974 65.9763C80.3083 65.9763 79.7468 66.3029 79.4023 66.8484L79.8364 67.1334Z" fill="white"/>
<path d="M57.5976 66.6953L57.5801 67.2231L76.3565 67.858L76.374 67.3302L57.5976 66.6953Z" fill="white"/>
<path d="M56.2541 62.8661C55.5789 62.0461 53.922 61.445 52.117 63.7104C50.3154 65.9793 51.5176 74.4852 56.0233 74.4852C60.5325 74.4886 58.0902 65.1037 56.2541 62.8661Z" fill="#E4837A"/>
<path d="M45.7832 45.6565C46.9268 42.3487 48.9282 39.5412 51.7322 37.314C53.9817 35.5281 56.7478 34.1069 59.9583 33.0924C65.4424 31.3585 70.3752 31.4141 70.4235 31.4141L70.4304 30.886C70.3821 30.886 65.3735 30.8269 59.8136 32.5816C56.5411 33.6135 53.713 35.0659 51.4119 36.8936C48.5286 39.1833 46.4687 42.0742 45.2871 45.4793L45.7832 45.6565Z" fill="#293657"/>
<path d="M39.434 45.0102C42.8271 44.2528 46.2443 44.4925 49.596 45.726C52.2864 46.7163 52.5344 46.2472 49.782 45.2326C46.3338 43.9644 42.8133 43.7142 39.3203 44.496L39.434 45.0102Z" fill="#293657"/>
<path d="M28.3797 105.534C30.822 103.081 42.8855 95.6282 51.5009 94.7769C51.7454 94.7526 67.9358 95.3016 68.2871 95.4023C72.2279 96.5455 85.5901 103.498 91.0742 109.405C91.0742 109.405 100.988 118.727 103.579 137.442C103.579 137.442 98.1704 150.027 98.6458 158.772C100.024 184.137 102.779 224.095 102.735 244.981C102.735 244.981 38.7277 251.329 24.3286 245.919C12.3788 228.285 24.1392 135.009 28.3797 105.534Z" fill="#7B86F1"/>
<path d="M38.7309 228.233L28.6136 232.823C28.6136 232.823 3.72526 205.93 1.05557 190.954C-2.58898 170.503 2.43003 129.426 28.3759 105.538C36.7329 107.863 38.2968 124.662 37.7009 141.274C37.0774 158.734 19.9742 184.947 19.9742 184.947L38.7309 228.233Z" fill="#7B86F1"/>
<path d="M20.2012 232.889L21.2278 232.757C15.6128 188.373 24.1765 142.035 24.2626 141.57L23.2464 141.375C23.1603 141.841 14.5656 188.345 20.2012 232.889Z" fill="#6574DB"/>
<path d="M9.35381 183.112C9.40204 183.098 14.1627 181.733 18.8441 183.112L19.1335 182.111C14.1558 180.645 9.27114 182.052 9.06445 182.111L9.35381 183.112Z" fill="#6574DB"/>
<path d="M192.623 101.719C193.16 102.018 193.356 102.696 193.06 103.238L181.758 124.03C181.465 124.572 180.79 124.77 180.253 124.471C179.719 124.176 179.519 123.495 179.815 122.953L191.121 102.161C191.414 101.622 192.089 101.424 192.623 101.719Z" fill="white"/>
<path d="M172.785 122.956C172.785 122.956 176.912 114.592 177.274 114.12C177.635 113.651 182.31 109.846 182.475 109.724C182.637 109.603 186.726 106.587 186.726 106.587C186.726 106.587 187.98 108.095 187.157 109.613C186.33 111.132 184.087 112.64 184.087 112.64L179.089 121.948L172.785 122.956Z" fill="#D17C79"/>
<path d="M170.466 126.226C170.466 126.226 176.684 117.393 177.428 116.691C178.172 115.989 188.486 109.912 188.93 109.624C191.41 108.015 192.854 110.68 191.958 111.795C191.059 112.914 189.337 113.929 189.337 113.929C189.337 113.929 191.72 115.83 189.495 117.473C192.681 119.096 190.439 121.476 190.439 121.476C190.439 121.476 191.341 123.14 191.228 123.884C191.114 124.624 189.653 126.969 189.061 127.608C188.468 128.248 177.759 136.403 177.759 136.403L167.941 145.454L161.568 135.565L170.466 126.226Z" fill="#E2857E"/>
<path d="M161.571 129.936L171.334 146.614C171.334 146.614 141.709 178.581 124.485 176.843C107.261 175.106 85.2149 151.479 85.2149 151.479C85.2149 151.479 74.2123 112.337 91.071 109.436C103.472 117.775 127.93 145.572 127.93 145.572L161.571 129.936Z" fill="#7B86F1"/>
<path d="M99.004 165.131L91.3359 158.356L92.0145 157.57L98.9351 163.686L99.004 165.131Z" fill="#6574DB"/>
</svg>
